<?xml version="1.0" encoding="iso-8859-1"?>
<!-- Generator: Adobe Illustrator 18.0.0, SVG Export Plug-In . SVG Version: 6.00 Build 0)  -->
<!DOCTYPE svg PUBLIC "-//W3C//DTD SVG 1.1//EN" "http://www.w3.org/Graphics/SVG/1.1/DTD/svg11.dtd">
<svg version="1.1" id="Capa_1" xmlns="http://www.w3.org/2000/svg" xmlns:xlink="http://www.w3.org/1999/xlink" x="0px" y="0px"
	 viewBox="0 0 481.251 481.251" style="enable-background:new 0 0 481.251 481.251;" xml:space="preserve">
<g>
	<path style="fill:#FCE7A7;" d="M336.318,250.721v32.38c0,52.854-42.84,95.701-95.693,95.701s-95.693-42.847-95.693-95.701v-32.38
		c0-13.657,2.858-26.642,8.008-38.398c2.458-5.595,5.429-10.904,8.86-15.881c17.261-25.021,46.127-41.422,78.824-41.422
		c26.431,0,50.35,10.708,67.664,28.029c4.11,4.11,7.85,8.596,11.16,13.393c3.431,4.977,6.402,10.286,8.86,15.881
		C333.46,224.079,336.318,237.064,336.318,250.721z"/>
	<g>
		<path style="fill:#E5CF98;" d="M209.33,256.124h-32.426c-7.288,0-13.196-5.908-13.196-13.196v0
			c0-7.288,5.908-13.196,13.196-13.196h32.426c7.288,0,13.196,5.908,13.196,13.196v0
			C222.526,250.216,216.618,256.124,209.33,256.124z"/>
		<path style="fill:#E5CF98;" d="M304.344,256.124h-32.426c-7.288,0-13.196-5.908-13.196-13.196v0
			c0-7.288,5.908-13.196,13.196-13.196h32.426c7.288,0,13.196,5.908,13.196,13.196v0
			C317.541,250.216,311.633,256.124,304.344,256.124z"/>
	</g>
	<path style="fill:#7866A3;" d="M111.329,189.331l47.997,10.881c-7.367,11.839-12.224,25.413-13.815,39.966l-38.051,3.031
		c-16.469,1.305-29.515-11.914-29.515-27.185c0-2.979,0.49-6.025,1.553-9.064C84.084,193.848,97.778,186.261,111.329,189.331z"/>
	<path style="fill:#FCE7A7;" d="M263.328,362.214v17.563c0,3.838-0.942,7.453-2.639,10.623c-3.804,7.179-11.36,12.08-20.065,12.08
		c-8.704,0-16.261-4.9-20.065-12.08c-1.696-3.17-2.639-6.785-2.639-10.623v-17.563H263.328z"/>
	<path style="fill:#E5CF98;" d="M263.328,362.214v17.563c0,3.838-0.942,7.453-2.639,10.623c-6.46,1.388-13.176,2.108-20.065,2.108
		c-6.888,0-13.605-0.72-20.065-2.108c-1.696-3.17-2.639-6.785-2.639-10.623v-17.563H263.328z"/>
	<path style="fill:#FCE7A7;" d="M178.541,204.563l-19.214-4.351c16.892-27.132,46.987-45.192,81.298-45.192
		c26.431,0,50.35,10.708,67.664,28.029c5.173,5.173,9.75,10.927,13.634,17.163l-19.214,4.351
		C261.837,213.823,219.412,213.823,178.541,204.563z"/>
	<path style="fill:#E5CF98;" d="M332.781,211.312l-4.472,1.01l-24.922,5.648l-0.671,0.151c-40.871,9.26-83.296,9.26-124.175,0
		l-0.679-0.151l-24.922-5.648l-4.464-1.01c3.484-8.725,5.361-14.87,5.361-14.87h7.963c17.261-25.021,46.127-41.422,78.824-41.422
		c26.431,0,50.35,10.708,67.664,28.029c4.11,4.11,7.85,8.596,11.16,13.393h7.963C327.412,196.442,329.289,202.587,332.781,211.312z"
		/>
	<g>
		<path style="fill:#FFFFFF;" d="M195.315,286.288c-7.552,0-13.696-6.144-13.696-13.696s6.144-13.697,13.696-13.697
			s13.696,6.144,13.696,13.697S202.867,286.288,195.315,286.288z"/>
		<path style="fill:#FFFFFF;" d="M285.949,286.288c-7.552,0-13.696-6.144-13.696-13.696s6.144-13.697,13.696-13.697
			c7.552,0,13.697,6.144,13.697,13.697S293.501,286.288,285.949,286.288z"/>
		<path style="fill:#0071BC;" d="M200.002,272.592c-2.589,0-4.687-2.099-4.687-4.687c0-1.618,0.819-3.044,2.066-3.886
			c-0.664-0.16-1.353-0.253-2.066-0.253c-4.875,0-8.827,3.952-8.827,8.827s3.952,8.827,8.827,8.827s8.827-3.952,8.827-8.827
			c0-0.713-0.094-1.402-0.253-2.066C203.046,271.773,201.62,272.592,200.002,272.592z"/>
		<path style="fill:#0071BC;" d="M290.636,272.592c-2.589,0-4.687-2.099-4.687-4.687c0-1.618,0.819-3.044,2.066-3.886
			c-0.664-0.16-1.353-0.253-2.066-0.253c-4.875,0-8.827,3.952-8.827,8.827s3.952,8.827,8.827,8.827s8.827-3.952,8.827-8.827
			c0-0.713-0.094-1.402-0.253-2.066C293.68,271.773,292.254,272.592,290.636,272.592z"/>
	</g>
	<polygon style="fill:#E5CF98;" points="227.559,279.719 240.624,267.884 253.69,279.719 	"/>
	<polygon style="fill:#9A87C9;" points="153.614,188.657 185.382,138.015 174.663,109.876 213.521,81.737 208.161,53.598 
		233.62,42.878 201.462,0 283.199,46.898 261.759,61.638 291.238,92.457 273.819,109.876 315.357,152.754 303.604,168.392 
		335.457,188.657 	"/>
	<polygon style="fill:#7866A3;" points="273.819,109.876 244.34,89.777 283.353,100.342 	"/>
	<polygon style="fill:#7866A3;" points="185.382,138.015 196.137,163.209 178.392,149.158 	"/>
	<polygon style="fill:#7866A3;" points="303.604,168.392 260.458,143.108 309.434,160.635 	"/>
	<path style="fill:#7866A3;" d="M373.788,243.21l-38.051-3.031c-1.591-14.554-6.447-28.127-13.815-39.966l47.997-10.881
		c2.021-0.46,4.049-0.679,6.055-0.679c11.387,0,21.876,7.156,25.775,18.309C408.257,225.594,393.47,244.771,373.788,243.21z"/>
	<path style="fill:#999999;" d="M336.318,264.829l27.969-3.016c-14.403-11.998-25.412-35.216-31.506-50.501
		c-3.491-8.725-5.369-14.87-5.369-14.87h-25.956l1.93,21.529l5.233,58.464c0.973,10.829-0.641,21.25-4.298,30.691l-20.375-12.292
		c-10.323-6.229-21.899-8.084-33.082-5.294c-6.764,1.689-13.702,1.689-20.466,0c-3.386-0.845-6.809-1.267-10.225-1.267
		c-7.858,0-15.662,2.217-22.856,6.561l-20.383,12.299c-3.665-9.441-5.279-19.863-4.306-30.699l5.233-58.464l1.93-21.529h-25.956
		c0,0-1.878,6.146-5.361,14.87c-6.101,15.285-17.11,38.503-31.513,50.501l27.969,3.016c0,0-9.117,63.343-37.772,88.982
		c0,0,23.708,5.422,40.72-5.279c0,0,33.18,73.146,3.016,107.08c0,0,42.229-3.77,49.769-30.163c0,0,21.861,39.212,39.959,55.802
		c18.098-16.59,39.959-55.802,39.959-55.802c7.541,26.393,49.77,30.163,49.77,30.163c-30.163-33.934,3.016-107.08,3.016-107.08
		c17.012,10.7,40.72,5.279,40.72,5.279C345.434,328.172,336.318,264.829,336.318,264.829z M278.434,339.378
		c-8.679-11.394-22.381-18.754-37.81-18.754c-15.429,0-29.13,7.36-37.81,18.754c-8.928-5.957-16.349-13.951-21.635-23.279
		c21.884,0,59.452,0,59.452,0h59.437C294.783,325.427,287.362,333.421,278.434,339.378z"/>
	<path style="fill:#808080;" d="M179.792,196.442l-1.93,21.529l-24.922-5.648l-4.464-1.01c3.484-8.725,5.361-14.87,5.361-14.87
		H179.792z"/>
	<path style="fill:#808080;" d="M332.781,211.312l-4.472,1.01l-24.922,5.648l-1.93-21.529h25.956
		C327.412,196.442,329.289,202.587,332.781,211.312z"/>
	<g>
		<path style="fill:#947CC1;" d="M302.717,204.562l67.21-15.23c2.048-0.464,4.099-0.681,6.122-0.675H105.213
			c2.023-0.005,4.073,0.211,6.121,0.675l67.21,15.23C219.417,213.824,261.844,213.824,302.717,204.562z"/>
		<path style="fill:#947CC1;" d="M104.928,188.657h-1.593l-0.013,0.073C103.855,188.691,104.39,188.664,104.928,188.657z"/>
		<path style="fill:#947CC1;" d="M377.926,188.729v-0.072h-1.593C376.867,188.664,377.398,188.691,377.926,188.729z"/>
	</g>
	<g>
		<path style="fill:#B3B3B3;" d="M209.33,251.63h-32.426c-7.288,0-13.196-5.908-13.196-13.196v0c0-7.288,5.908-13.196,13.196-13.196
			h32.426c7.288,0,13.196,5.908,13.196,13.196v0C222.526,245.721,216.618,251.63,209.33,251.63z"/>
		<path style="fill:#B3B3B3;" d="M304.344,251.63h-32.426c-7.288,0-13.196-5.908-13.196-13.196v0
			c0-7.288,5.908-13.196,13.196-13.196h32.426c7.288,0,13.196,5.908,13.196,13.196v0C317.541,245.721,311.633,251.63,304.344,251.63
			z"/>
	</g>
</g>
<g>
</g>
<g>
</g>
<g>
</g>
<g>
</g>
<g>
</g>
<g>
</g>
<g>
</g>
<g>
</g>
<g>
</g>
<g>
</g>
<g>
</g>
<g>
</g>
<g>
</g>
<g>
</g>
<g>
</g>
</svg>
